<mxfile host="65bd71144e">
    <diagram id="JUUrWhSfbbrLkx7lO2Bu" name="Page-1">
        <mxGraphModel dx="1139" dy="747" grid="1" gridSize="10" guides="1" tooltips="1" connect="1" arrows="1" fold="1" page="1" pageScale="1" pageWidth="850" pageHeight="1100" math="0" shadow="0">
            <root>
                <mxCell id="0"/>
                <mxCell id="1" parent="0"/>
                <mxCell id="21" value="" style="edgeStyle=none;html=1;" parent="1" source="3" target="6" edge="1">
                    <mxGeometry relative="1" as="geometry"/>
                </mxCell>
                <mxCell id="3" value="" style="shape=umlActor;verticalLabelPosition=bottom;verticalAlign=top;html=1;outlineConnect=0;" parent="1" vertex="1">
                    <mxGeometry x="495" y="140" width="50" height="100" as="geometry"/>
                </mxCell>
                <mxCell id="5" value="" style="rounded=0;whiteSpace=wrap;html=1;fillStyle=cross-hatch;fillColor=#F2AC44;" parent="1" vertex="1">
                    <mxGeometry x="500" y="240" width="40" height="10" as="geometry"/>
                </mxCell>
                <mxCell id="6" value="GroundCheck&lt;br&gt;Body" style="text;html=1;strokeColor=none;fillColor=none;align=center;verticalAlign=middle;whiteSpace=wrap;rounded=0;fillStyle=cross-hatch;" parent="1" vertex="1">
                    <mxGeometry x="490" y="280" width="60" height="30" as="geometry"/>
                </mxCell>
                <mxCell id="7" value="" style="endArrow=none;html=1;" parent="1" source="6" target="5" edge="1">
                    <mxGeometry width="50" height="50" relative="1" as="geometry">
                        <mxPoint x="460" y="350" as="sourcePoint"/>
                        <mxPoint x="510" y="300" as="targetPoint"/>
                    </mxGeometry>
                </mxCell>
                <mxCell id="8" value="" style="rounded=0;whiteSpace=wrap;html=1;fillStyle=cross-hatch;fillColor=#F2AC44;" parent="1" vertex="1">
                    <mxGeometry x="530" y="160" width="10" height="70" as="geometry"/>
                </mxCell>
                <mxCell id="10" value="" style="rounded=0;whiteSpace=wrap;html=1;fillStyle=cross-hatch;fillColor=#F2AC44;" parent="1" vertex="1">
                    <mxGeometry x="500" y="160" width="10" height="70" as="geometry"/>
                </mxCell>
                <mxCell id="11" value="WallHugRight&lt;br&gt;Body" style="text;html=1;strokeColor=none;fillColor=none;align=center;verticalAlign=middle;whiteSpace=wrap;rounded=0;fillStyle=cross-hatch;" parent="1" vertex="1">
                    <mxGeometry x="620" y="175" width="60" height="30" as="geometry"/>
                </mxCell>
                <mxCell id="12" value="" style="endArrow=none;html=1;exitX=1;exitY=0.5;exitDx=0;exitDy=0;" parent="1" source="8" target="11" edge="1">
                    <mxGeometry width="50" height="50" relative="1" as="geometry">
                        <mxPoint x="460" y="330" as="sourcePoint"/>
                        <mxPoint x="510" y="280" as="targetPoint"/>
                    </mxGeometry>
                </mxCell>
                <mxCell id="13" value="WallHugLeft&lt;br&gt;Body" style="text;html=1;strokeColor=none;fillColor=none;align=center;verticalAlign=middle;whiteSpace=wrap;rounded=0;fillStyle=cross-hatch;" parent="1" vertex="1">
                    <mxGeometry x="360" y="175" width="60" height="30" as="geometry"/>
                </mxCell>
                <mxCell id="14" value="" style="endArrow=none;html=1;entryX=0;entryY=0.5;entryDx=0;entryDy=0;" parent="1" source="13" target="10" edge="1">
                    <mxGeometry width="50" height="50" relative="1" as="geometry">
                        <mxPoint x="460" y="330" as="sourcePoint"/>
                        <mxPoint x="510" y="280" as="targetPoint"/>
                    </mxGeometry>
                </mxCell>
                <mxCell id="15" value="&lt;h1&gt;Movement System&lt;/h1&gt;&lt;p&gt;Controller component for handling base movement used in the Game.&lt;/p&gt;&lt;p&gt;Some movement conditions used in the controller are based on the trigger body related to it (ex. GroundChekc body).&lt;/p&gt;" style="text;html=1;strokeColor=none;fillColor=none;spacing=5;spacingTop=-20;whiteSpace=wrap;overflow=hidden;rounded=0;fillStyle=cross-hatch;" parent="1" vertex="1">
                    <mxGeometry x="50" y="120" width="220" height="170" as="geometry"/>
                </mxCell>
                <mxCell id="16" value="&lt;h1&gt;On Ground vs On Air&lt;/h1&gt;&lt;p&gt;For horizontal movement, there are two different conditions that will affect how the object move.&lt;/p&gt;&lt;p&gt;When touching ground, the controller moves normally (normal speed) with an agile movement (instant direction changing).&lt;/p&gt;&lt;p&gt;&lt;span style=&quot;background-color: initial;&quot;&gt;But, when the object is flying, the object only giving force, altering the current momentum when on air.&lt;/span&gt;&lt;/p&gt;" style="text;html=1;strokeColor=none;fillColor=none;spacing=5;spacingTop=-20;whiteSpace=wrap;overflow=hidden;rounded=0;fillStyle=cross-hatch;" parent="1" vertex="1">
                    <mxGeometry x="50" y="350" width="190" height="330" as="geometry"/>
                </mxCell>
                <mxCell id="17" value="&lt;h1&gt;Jumping&lt;/h1&gt;&lt;p&gt;Objek hanya bisa melompat ketika objek menyentuh tanah.&lt;/p&gt;&lt;p&gt;Namun ketika movement berada pada state &quot;wallhugging&quot; (ketika body trigger WallHugX menyentuh sesuatu) controller bisa melakukan aksi &quot;walljumping&quot;.&lt;/p&gt;" style="text;html=1;strokeColor=none;fillColor=none;spacing=5;spacingTop=-20;whiteSpace=wrap;overflow=hidden;rounded=0;fillStyle=cross-hatch;" parent="1" vertex="1">
                    <mxGeometry x="50" y="730" width="190" height="190" as="geometry"/>
                </mxCell>
                <mxCell id="19" value="" style="rounded=0;whiteSpace=wrap;html=1;fillStyle=solid;fillColor=#1A1A1A;" parent="1" vertex="1">
                    <mxGeometry x="320" y="560" width="400" height="60" as="geometry"/>
                </mxCell>
                <mxCell id="22" value="" style="shape=umlActor;verticalLabelPosition=bottom;verticalAlign=top;html=1;outlineConnect=0;" parent="1" vertex="1">
                    <mxGeometry x="375" y="500" width="30" height="60" as="geometry"/>
                </mxCell>
                <mxCell id="23" value="" style="rounded=0;whiteSpace=wrap;html=1;fillStyle=solid;fillColor=#F2AC44;" parent="1" vertex="1">
                    <mxGeometry x="382.5" y="560" width="15" height="10" as="geometry"/>
                </mxCell>
                <mxCell id="25" value="&lt;font style=&quot;font-size: 10px;&quot;&gt;OnGround&lt;/font&gt;" style="text;html=1;strokeColor=none;fillColor=none;align=center;verticalAlign=middle;whiteSpace=wrap;rounded=0;fillStyle=solid;" parent="1" vertex="1">
                    <mxGeometry x="360" y="460" width="60" height="30" as="geometry"/>
                </mxCell>
                <mxCell id="26" value="" style="endArrow=classic;html=1;fontSize=10;exitX=0.5;exitY=0.5;exitDx=0;exitDy=0;exitPerimeter=0;fillColor=#60a917;strokeColor=#2D7600;" parent="1" source="22" edge="1">
                    <mxGeometry width="50" height="50" relative="1" as="geometry">
                        <mxPoint x="470" y="550" as="sourcePoint"/>
                        <mxPoint x="470" y="530" as="targetPoint"/>
                    </mxGeometry>
                </mxCell>
                <mxCell id="28" value="" style="shape=umlActor;verticalLabelPosition=bottom;verticalAlign=top;html=1;outlineConnect=0;" parent="1" vertex="1">
                    <mxGeometry x="465" y="500" width="30" height="60" as="geometry"/>
                </mxCell>
                <mxCell id="29" value="" style="rounded=0;whiteSpace=wrap;html=1;fillStyle=solid;fillColor=#F2AC44;" parent="1" vertex="1">
                    <mxGeometry x="472.5" y="560" width="15" height="10" as="geometry"/>
                </mxCell>
                <mxCell id="30" value="" style="endArrow=classic;html=1;fontSize=10;exitX=0.5;exitY=0.5;exitDx=0;exitDy=0;exitPerimeter=0;dashed=1;fillColor=#f0a30a;strokeColor=#BD7000;" parent="1" source="28" edge="1">
                    <mxGeometry width="50" height="50" relative="1" as="geometry">
                        <mxPoint x="460" y="540" as="sourcePoint"/>
                        <mxPoint x="480" y="480" as="targetPoint"/>
                    </mxGeometry>
                </mxCell>
                <mxCell id="31" value="" style="endArrow=classic;html=1;fontSize=10;exitX=0.5;exitY=0.5;exitDx=0;exitDy=0;exitPerimeter=0;dashed=1;fillColor=#f0a30a;strokeColor=#BD7000;" parent="1" source="28" edge="1">
                    <mxGeometry width="50" height="50" relative="1" as="geometry">
                        <mxPoint x="460" y="540" as="sourcePoint"/>
                        <mxPoint x="560" y="530" as="targetPoint"/>
                    </mxGeometry>
                </mxCell>
                <mxCell id="32" value="" style="endArrow=classic;html=1;fontSize=10;exitX=0.5;exitY=0.5;exitDx=0;exitDy=0;exitPerimeter=0;curved=1;fillColor=#60a917;strokeColor=#2D7600;" parent="1" source="28" edge="1">
                    <mxGeometry width="50" height="50" relative="1" as="geometry">
                        <mxPoint x="490" y="510" as="sourcePoint"/>
                        <mxPoint x="550" y="470" as="targetPoint"/>
                        <Array as="points">
                            <mxPoint x="500" y="480"/>
                        </Array>
                    </mxGeometry>
                </mxCell>
                <mxCell id="33" value="" style="shape=umlActor;verticalLabelPosition=bottom;verticalAlign=top;html=1;outlineConnect=0;" parent="1" vertex="1">
                    <mxGeometry x="545" y="430" width="30" height="60" as="geometry"/>
                </mxCell>
                <mxCell id="34" value="" style="rounded=0;whiteSpace=wrap;html=1;fillStyle=solid;fillColor=#F2AC44;" parent="1" vertex="1">
                    <mxGeometry x="552.5" y="490" width="15" height="10" as="geometry"/>
                </mxCell>
                <mxCell id="38" value="&lt;font style=&quot;font-size: 10px;&quot;&gt;OnAir&lt;/font&gt;" style="text;html=1;strokeColor=none;fillColor=none;align=center;verticalAlign=middle;whiteSpace=wrap;rounded=0;fillStyle=solid;" parent="1" vertex="1">
                    <mxGeometry x="530" y="400" width="60" height="30" as="geometry"/>
                </mxCell>
                <mxCell id="39" value="" style="endArrow=classic;html=1;fontSize=10;exitX=0.5;exitY=0.5;exitDx=0;exitDy=0;exitPerimeter=0;dashed=1;fillColor=#0050ef;strokeColor=#001DBC;" parent="1" source="33" edge="1">
                    <mxGeometry width="50" height="50" relative="1" as="geometry">
                        <mxPoint x="490" y="530" as="sourcePoint"/>
                        <mxPoint x="640" y="460" as="targetPoint"/>
                    </mxGeometry>
                </mxCell>
                <mxCell id="40" value="" style="endArrow=classic;html=1;fontSize=10;exitX=0.5;exitY=0.5;exitDx=0;exitDy=0;exitPerimeter=0;dashed=1;fillColor=#f0a30a;strokeColor=#BD7000;" parent="1" source="33" edge="1">
                    <mxGeometry width="50" height="50" relative="1" as="geometry">
                        <mxPoint x="570" y="470" as="sourcePoint"/>
                        <mxPoint x="530" y="460" as="targetPoint"/>
                    </mxGeometry>
                </mxCell>
                <mxCell id="41" value="" style="endArrow=classic;html=1;fontSize=10;curved=1;exitX=0.5;exitY=0.5;exitDx=0;exitDy=0;exitPerimeter=0;fillColor=#60a917;strokeColor=#2D7600;" parent="1" source="33" edge="1">
                    <mxGeometry width="50" height="50" relative="1" as="geometry">
                        <mxPoint x="520" y="510" as="sourcePoint"/>
                        <mxPoint x="610" y="460" as="targetPoint"/>
                    </mxGeometry>
                </mxCell>
                <mxCell id="42" value="Input" style="text;html=1;strokeColor=none;fillColor=none;align=center;verticalAlign=middle;whiteSpace=wrap;rounded=0;dashed=1;dashPattern=8 8;fillStyle=solid;fontSize=10;" parent="1" vertex="1">
                    <mxGeometry x="432.5" y="450" width="40" height="20" as="geometry"/>
                </mxCell>
                <mxCell id="43" value="" style="endArrow=none;html=1;fontSize=10;curved=1;" parent="1" target="42" edge="1">
                    <mxGeometry width="50" height="50" relative="1" as="geometry">
                        <mxPoint x="480" y="490" as="sourcePoint"/>
                        <mxPoint x="530" y="490" as="targetPoint"/>
                    </mxGeometry>
                </mxCell>
                <mxCell id="44" value="Input" style="text;html=1;strokeColor=none;fillColor=none;align=center;verticalAlign=middle;whiteSpace=wrap;rounded=0;dashed=1;dashPattern=8 8;fillStyle=solid;fontSize=10;" parent="1" vertex="1">
                    <mxGeometry x="567.5" y="540" width="40" height="20" as="geometry"/>
                </mxCell>
                <mxCell id="45" value="" style="endArrow=none;html=1;fontSize=10;curved=1;" parent="1" source="44" edge="1">
                    <mxGeometry width="50" height="50" relative="1" as="geometry">
                        <mxPoint x="480" y="540" as="sourcePoint"/>
                        <mxPoint x="550" y="530" as="targetPoint"/>
                    </mxGeometry>
                </mxCell>
                <mxCell id="47" value="Input" style="text;html=1;strokeColor=none;fillColor=none;align=center;verticalAlign=middle;whiteSpace=wrap;rounded=0;dashed=1;dashPattern=8 8;fillStyle=solid;fontSize=10;" parent="1" vertex="1">
                    <mxGeometry x="490" y="420" width="40" height="20" as="geometry"/>
                </mxCell>
                <mxCell id="48" value="" style="endArrow=none;html=1;fontSize=10;curved=1;" parent="1" target="47" edge="1">
                    <mxGeometry width="50" height="50" relative="1" as="geometry">
                        <mxPoint x="540" y="460" as="sourcePoint"/>
                        <mxPoint x="530" y="490" as="targetPoint"/>
                    </mxGeometry>
                </mxCell>
                <mxCell id="49" value="Resulting Movement" style="text;html=1;strokeColor=none;fillColor=none;align=center;verticalAlign=middle;whiteSpace=wrap;rounded=0;dashed=1;dashPattern=8 8;fillStyle=solid;fontSize=10;" parent="1" vertex="1">
                    <mxGeometry x="427.5" y="400" width="60" height="20" as="geometry"/>
                </mxCell>
                <mxCell id="50" value="" style="endArrow=none;html=1;fontSize=10;curved=1;" parent="1" target="49" edge="1">
                    <mxGeometry width="50" height="50" relative="1" as="geometry">
                        <mxPoint x="520" y="480" as="sourcePoint"/>
                        <mxPoint x="540" y="440" as="targetPoint"/>
                    </mxGeometry>
                </mxCell>
                <mxCell id="51" value="Current Momentum" style="text;html=1;strokeColor=none;fillColor=none;align=center;verticalAlign=middle;whiteSpace=wrap;rounded=0;dashed=1;dashPattern=8 8;fillStyle=solid;fontSize=10;" parent="1" vertex="1">
                    <mxGeometry x="640" y="380" width="40" height="30" as="geometry"/>
                </mxCell>
                <mxCell id="52" value="" style="endArrow=none;html=1;fontSize=10;curved=1;" parent="1" target="51" edge="1">
                    <mxGeometry width="50" height="50" relative="1" as="geometry">
                        <mxPoint x="630" y="460" as="sourcePoint"/>
                        <mxPoint x="540" y="440" as="targetPoint"/>
                    </mxGeometry>
                </mxCell>
                <mxCell id="53" value="" style="rounded=0;whiteSpace=wrap;html=1;fillStyle=solid;strokeColor=default;fontSize=10;fillColor=#1A1A1A;" parent="1" vertex="1">
                    <mxGeometry x="320" y="920" width="360" height="50" as="geometry"/>
                </mxCell>
                <mxCell id="54" value="" style="rounded=0;whiteSpace=wrap;html=1;fillStyle=solid;strokeColor=default;fontSize=10;fillColor=#1A1A1A;" parent="1" vertex="1">
                    <mxGeometry x="620" y="770" width="60" height="150" as="geometry"/>
                </mxCell>
                <mxCell id="55" value="" style="shape=umlActor;verticalLabelPosition=bottom;verticalAlign=top;html=1;outlineConnect=0;" parent="1" vertex="1">
                    <mxGeometry x="360" y="860" width="30" height="60" as="geometry"/>
                </mxCell>
                <mxCell id="56" value="" style="rounded=0;whiteSpace=wrap;html=1;fillStyle=solid;fillColor=#F2AC44;" parent="1" vertex="1">
                    <mxGeometry x="367.5" y="920" width="15" height="10" as="geometry"/>
                </mxCell>
                <mxCell id="57" value="Bisa lompat" style="text;html=1;strokeColor=none;fillColor=none;align=center;verticalAlign=middle;whiteSpace=wrap;rounded=0;fillStyle=solid;fontSize=10;" parent="1" vertex="1">
                    <mxGeometry x="290" y="860" width="60" height="30" as="geometry"/>
                </mxCell>
                <mxCell id="58" value="" style="shape=umlActor;verticalLabelPosition=bottom;verticalAlign=top;html=1;outlineConnect=0;" parent="1" vertex="1">
                    <mxGeometry x="425" y="810" width="30" height="60" as="geometry"/>
                </mxCell>
                <mxCell id="59" value="" style="rounded=0;whiteSpace=wrap;html=1;fillStyle=solid;fillColor=#F2AC44;" parent="1" vertex="1">
                    <mxGeometry x="432.5" y="870" width="15" height="10" as="geometry"/>
                </mxCell>
                <mxCell id="60" value="Tidak bisa lompat" style="text;html=1;strokeColor=none;fillColor=none;align=center;verticalAlign=middle;whiteSpace=wrap;rounded=0;fillStyle=solid;fontSize=10;" parent="1" vertex="1">
                    <mxGeometry x="465" y="830" width="60" height="30" as="geometry"/>
                </mxCell>
                <mxCell id="63" value="" style="endArrow=classic;html=1;fontSize=10;curved=1;exitX=0.5;exitY=0;exitDx=0;exitDy=0;exitPerimeter=0;dashed=1;" parent="1" source="55" edge="1">
                    <mxGeometry width="50" height="50" relative="1" as="geometry">
                        <mxPoint x="430" y="870" as="sourcePoint"/>
                        <mxPoint x="375" y="830" as="targetPoint"/>
                    </mxGeometry>
                </mxCell>
                <mxCell id="64" value="" style="shape=umlActor;verticalLabelPosition=bottom;verticalAlign=top;html=1;outlineConnect=0;" parent="1" vertex="1">
                    <mxGeometry x="592.5" y="780" width="30" height="60" as="geometry"/>
                </mxCell>
                <mxCell id="65" value="" style="rounded=0;whiteSpace=wrap;html=1;fillStyle=solid;fillColor=#F2AC44;" parent="1" vertex="1">
                    <mxGeometry x="610" y="790" width="12.5" height="40" as="geometry"/>
                </mxCell>
                <mxCell id="66" value="Wall-Hugging" style="text;html=1;strokeColor=none;fillColor=none;align=center;verticalAlign=middle;whiteSpace=wrap;rounded=0;fillStyle=solid;fontSize=10;" parent="1" vertex="1">
                    <mxGeometry x="630" y="790" width="40" height="30" as="geometry"/>
                </mxCell>
                <mxCell id="67" value="" style="endArrow=classic;html=1;dashed=1;fontSize=10;curved=1;exitX=0.5;exitY=0.5;exitDx=0;exitDy=0;exitPerimeter=0;" parent="1" source="64" edge="1">
                    <mxGeometry width="50" height="50" relative="1" as="geometry">
                        <mxPoint x="500" y="900" as="sourcePoint"/>
                        <mxPoint x="560" y="760" as="targetPoint"/>
                        <Array as="points">
                            <mxPoint x="600" y="770"/>
                        </Array>
                    </mxGeometry>
                </mxCell>
            </root>
        </mxGraphModel>
    </diagram>
</mxfile>